<?xml version="1.0" encoding="utf-8"?>
<!-- Generator: Adobe Illustrator 24.1.1, SVG Export Plug-In . SVG Version: 6.00 Build 0)  -->
<svg version="1.1" id="Layer_1" xmlns="http://www.w3.org/2000/svg" xmlns:xlink="http://www.w3.org/1999/xlink" x="0px" y="0px"
	 viewBox="0 0 800 800" enable-background="new 0 0 800 800" xml:space="preserve">
<g>
	<path fill="#17A8F7" d="M57.84,289.17"/>
	<g transform="matrix(1.9140625, 0, 0, 1.9140625, 210.00007436047508, -2.842170943040401e-14)">
		<g>
			<g>
				<g>
					<path fill="#FFFFFF" d="M125.85,222.37c-6.33-6.33-16.59-6.33-22.92,0l-14.66,14.66l-14.66-14.66
						c-6.33-6.33-16.59-6.33-22.92,0c-6.33,6.33-6.33,16.59,0,22.92l14.66,14.66L50.7,274.61c-6.33,6.33-6.33,16.59,0,22.92
						s16.59,6.33,22.92,0l14.66-14.66l14.66,14.66c6.33,6.33,16.59,6.33,22.92,0c6.33-6.33,6.33-16.59,0-22.92l-14.58-14.66
						l14.66-14.66C132.26,238.96,132.26,228.7,125.85,222.37L125.85,222.37z"/>
					<path fill="#FFFFFF" d="M88.36,342.24c-45.51,0-82.37-36.86-82.37-82.37s36.86-82.37,82.37-82.37s82.37,36.86,82.37,82.37
						S133.79,342.24,88.36,342.24L88.36,342.24z M-63.32,226.22c0-12.42,4.25-24.28,11.94-33.33c3.77-4.49,4.89-10.58,2.88-16.11
						c-4.09-11.38-6.17-23.24-6.17-35.26c0-52.72,38.86-95.67,86.62-95.67c34.93,0,66.02,23.08,79.8,58.57
						c6.01,15.46,21.55,10.18,25.64,6.81c8.65-7.05,18.91-10.82,29.57-10.82c27.72,0,49.12,25.16,50.24,56.09
						c0.48,13.38,4.49,20.27,12.34,22.11c19.95,4.73,34.37,24.68,34.37,47.51c0,26.76-19.47,48.56-43.35,48.56h-18.43
						c0.64-4.89,0.96-9.86,0.96-14.9c0-63.38-51.36-114.82-114.82-114.82c-63.38,0-114.82,51.36-114.82,114.82
						c0,4.89,0.32,9.78,0.88,14.5C-46.82,271.33-63.32,250.9-63.32,226.22L-63.32,226.22z M220.56,307.55
						c41.91,0,76.04-36.46,76.04-81.33c0-33.01-19.07-62.58-46.87-75.08c-2.64-46.47-38.78-83.41-82.85-83.41
						c-11.46,0-22.6,2.48-32.85,7.29C112.63,36.88,74.33,13.17,31.95,13.17c-65.78,0-119.31,57.61-119.31,128.36
						c0,12.82,1.76,25.48,5.37,37.82c-9.13,13.62-14.02,29.97-14.02,46.87c0,44.79,34.13,81.33,76.04,81.33h3.77
						c18.11,39.66,58.09,67.23,104.48,67.23c27.48,0,52.72-9.7,72.51-25.8l52.16,52.16c6.33,6.33,16.59,6.33,22.92,0
						s6.33-16.59,0-22.92l-53.04-53.04c3.77-5.53,7.13-11.38,9.94-17.47h27.8L220.56,307.55L220.56,307.55z"/>
				</g>
			</g>
		</g>
	</g>
</g>
</svg>
