<?xml version="1.0" encoding="utf-8"?>
<!-- Generator: Adobe Illustrator 24.1.1, SVG Export Plug-In . SVG Version: 6.00 Build 0)  -->
<svg version="1.1" id="Layer_1" xmlns="http://www.w3.org/2000/svg" xmlns:xlink="http://www.w3.org/1999/xlink" x="0px" y="0px"
	 viewBox="0 0 175.08 175.08" enable-background="new 0 0 175.08 175.08" xml:space="preserve">
<rect x="-410.4" y="452.57" width="523.43" height="155.95"/>
<rect x="-1268.04" y="-64.8" width="800" height="800"/>
<g>
	<path fill="none" stroke="#FFFFFF" stroke-width="10" stroke-miterlimit="10" d="M-1001.9,357.06l-28.94-60.05
		c-4.76-9.88-0.61-21.75,9.27-26.52v0c9.88-4.76,21.75-0.61,26.52,9.27l28.94,60.05c4.76,9.88,0.61,21.75-9.27,26.52v0
		C-985.27,371.09-997.14,366.94-1001.9,357.06z"/>
	<path fill="none" stroke="#FFFFFF" stroke-width="10" stroke-linecap="round" stroke-miterlimit="10" d="M-1068.94,357.32
		c-4.71,9.91-16.56,14.12-26.47,9.41l0,0c-9.91-4.71-14.12-16.56-9.41-26.47l12.55-22.51c2.73-4.9,7.9-7.93,13.51-7.93l0,0
		c5.99,0,11.45,3.46,14,8.89l17.94,38.18c4.76,9.88,16.63,14.03,26.52,9.27v0c9.88-4.76,14.03-16.63,9.27-26.52l-29.06-60.31
		c-4.74-9.84-16.62-13.9-26.39-9.01l0,0c-0.02,0.01-0.04,0.02-0.06,0.03c-0.9,0.44-1.76,0.95-2.56,1.54
		c-2.18,1.58-3.92,3.68-5.21,6.04l-5.77,10.54"/>
</g>
<g>
	<path fill="none" stroke="#000000" stroke-width="10" stroke-miterlimit="10" d="M-226.98,126.14l-28.94-60.05
		c-4.76-9.88-0.61-21.75,9.27-26.52l0,0c9.88-4.76,21.75-0.61,26.52,9.27l28.94,60.05c4.76,9.88,0.61,21.75-9.27,26.52l0,0
		C-210.35,140.17-222.22,136.02-226.98,126.14z"/>
	<path fill="none" stroke="#000000" stroke-width="10" stroke-linecap="round" stroke-miterlimit="10" d="M-294.02,126.4
		c-4.71,9.91-16.56,14.12-26.47,9.41h0c-9.91-4.71-14.12-16.56-9.41-26.47l12.55-22.51c2.73-4.9,7.9-7.93,13.51-7.93l0,0
		c5.99,0,11.45,3.46,14,8.89l17.94,38.18c4.76,9.88,16.63,14.03,26.52,9.27l0,0c9.88-4.76,14.03-16.63,9.27-26.52l-29.06-60.31
		c-4.74-9.84-16.62-13.9-26.39-9.01v0c-0.02,0.01-0.04,0.02-0.06,0.03c-0.9,0.44-1.76,0.95-2.56,1.54
		c-2.18,1.58-3.92,3.68-5.21,6.04l-5.77,10.54"/>
</g>
<path fill="#FFFFFF" stroke="#000000" stroke-width="11" stroke-miterlimit="10" d="M-1983.51,126.91l-55.82-115.82
	c-9.19-19.06-1.18-41.96,17.88-51.15l0,0c19.06-9.19,41.96-1.18,51.15,17.88l55.82,115.82c9.19,19.06,1.18,41.96-17.88,51.15v0
	C-1951.42,153.97-1974.32,145.97-1983.51,126.91z"/>
<path fill="#FFFFFF" stroke="#000000" stroke-width="11" stroke-miterlimit="10" d="M-2093.02,356.26l-55.82-115.82
	c-9.19-19.06-1.18-41.96,17.88-51.15l0,0c19.06-9.19,41.96-1.18,51.15,17.88L-2024,323c9.19,19.06,1.18,41.96-17.88,51.15l0,0
	C-2060.94,383.33-2083.84,375.32-2093.02,356.26z"/>
<path fill="#FFFFFF" stroke="#000000" stroke-width="11" stroke-miterlimit="10" d="M-2070.16,126.58l-55.82-115.82
	c-9.19-19.06-1.18-41.96,17.88-51.15v0c19.06-9.19,41.96-1.18,51.15,17.88l55.82,115.82c9.19,19.06,1.18,41.96-17.88,51.15l0,0
	C-2038.08,153.65-2060.98,145.64-2070.16,126.58z"/>
<path fill="#FFFFFF" stroke="#000000" stroke-width="11" stroke-miterlimit="10" d="M-2057.61,11.3l-55.2,116.12
	c-9.08,19.11-31.94,27.24-51.05,18.15l0,0c-19.11-9.08-27.24-31.94-18.15-51.05l55.2-116.12c9.08-19.11,31.94-27.24,51.05-18.15v0
	C-2056.65-30.67-2048.53-7.81-2057.61,11.3z"/>
<line fill="#FFFFFF" stroke="#000000" stroke-miterlimit="10" x1="-2153.28" y1="468.84" x2="-1931.2" y2="468.84"/>
<text transform="matrix(1 0 0 1 -2171.3022 599.3878)" fill="#FFFFFF" font-family="'Gotham-Black'" font-size="19.1331px" letter-spacing="13"> MUSWIND </text>
<text transform="matrix(1 0 0 1 -1938.0222 678.5878)" fill="#FFFFFF" font-family="'Gotham-Black'" font-size="19.1331px" letter-spacing="13">MUZICO</text>
<text transform="matrix(1 0 0 1 -2171.3022 671.2345)" fill="#FFFFFF" font-family="'Gilroy-Black'" font-size="44.3649px" letter-spacing="4">medlar</text>
<text transform="matrix(1 0 0 1 -907.04 343.0323)" fill="#FFFFFF" font-family="'Gilroy-Bold'" font-size="74.6862px" letter-spacing="7">muzico</text>
<g>
	<path fill="none" stroke="#FFFFFF" stroke-width="10" stroke-miterlimit="10" d="M-278,565.95l-28.94-60.05
		c-4.76-9.88-0.61-21.75,9.27-26.52h0c9.88-4.76,21.75-0.61,26.52,9.27l28.94,60.05c4.76,9.88,0.61,21.75-9.27,26.52l0,0
		C-261.36,579.99-273.24,575.84-278,565.95z"/>
	<path fill="none" stroke="#FFFFFF" stroke-width="10" stroke-linecap="round" stroke-miterlimit="10" d="M-345.04,566.22
		c-4.71,9.91-16.56,14.12-26.47,9.41h0c-9.91-4.71-14.12-16.56-9.41-26.47l12.55-22.51c2.73-4.9,7.9-7.93,13.51-7.93h0
		c5.99,0,11.45,3.46,14,8.89l17.94,38.18c4.76,9.88,16.63,14.03,26.52,9.27h0c9.88-4.76,14.03-16.63,9.27-26.52l-29.06-60.31
		c-4.74-9.84-16.62-13.9-26.39-9.01h0c-0.02,0.01-0.04,0.02-0.06,0.03c-0.9,0.44-1.76,0.95-2.56,1.54
		c-2.18,1.58-3.92,3.68-5.21,6.04l-5.77,10.54"/>
</g>
<text transform="matrix(1 0 0 1 -183.1347 551.9281)" fill="#FFFFFF" font-family="'Gilroy-Bold'" font-size="74.6862px" letter-spacing="7">muzico</text>
<g>
	<path fill="none" stroke="#000000" stroke-width="10" stroke-miterlimit="10" d="M-278,381.63l-28.94-60.05
		c-4.76-9.88-0.61-21.75,9.27-26.52l0,0c9.88-4.76,21.75-0.61,26.52,9.27l28.94,60.05c4.76,9.88,0.61,21.75-9.27,26.52h0
		C-261.36,395.67-273.24,391.52-278,381.63z"/>
	<path fill="none" stroke="#000000" stroke-width="10" stroke-linecap="round" stroke-miterlimit="10" d="M-345.04,381.9
		c-4.71,9.91-16.56,14.12-26.47,9.41h0c-9.91-4.71-14.12-16.56-9.41-26.47l12.55-22.51c2.73-4.9,7.9-7.93,13.51-7.93h0
		c5.99,0,11.45,3.46,14,8.89l17.94,38.18c4.76,9.88,16.63,14.03,26.52,9.27l0,0c9.88-4.76,14.03-16.63,9.27-26.52l-29.06-60.31
		c-4.74-9.84-16.62-13.9-26.39-9.01l0,0c-0.02,0.01-0.04,0.02-0.06,0.03c-0.9,0.44-1.76,0.95-2.56,1.54
		c-2.18,1.58-3.92,3.68-5.21,6.04l-5.77,10.54"/>
</g>
<text transform="matrix(1 0 0 1 -183.1347 367.6081)" font-family="'Gilroy-Bold'" font-size="74.6862px" letter-spacing="7">muzico</text>
<text transform="matrix(1 0 0 1 -2310.5364 531.4616)" fill="#FFFFFF" font-family="'Gotham-Black'" font-size="13.8832px" letter-spacing="6">MUSIC RECOGNITION APP</text>
<rect x="239.04" y="24.48" width="175.08" height="175.08"/>
<g>
	<path fill="none" stroke="#FFFFFF" stroke-width="10" stroke-miterlimit="10" d="M120.2,124.14L91.26,64.09
		c-4.76-9.88-0.61-21.75,9.27-26.52l0,0c9.88-4.76,21.75-0.61,26.52,9.27l28.94,60.05c4.76,9.88,0.61,21.75-9.27,26.52l0,0
		C136.83,138.17,124.96,134.02,120.2,124.14z"/>
	<path fill="none" stroke="#FFFFFF" stroke-width="10" stroke-linecap="round" stroke-miterlimit="10" d="M53.16,124.4
		c-4.71,9.91-16.56,14.12-26.47,9.41h0c-9.91-4.71-14.12-16.56-9.41-26.47l12.55-22.51c2.73-4.9,7.9-7.93,13.51-7.93h0
		c5.99,0,11.45,3.46,14,8.89l17.94,38.18c4.76,9.88,16.63,14.03,26.52,9.27l0,0c9.88-4.76,14.03-16.63,9.27-26.52L82,46.42
		c-4.74-9.84-16.62-13.9-26.39-9.01l0,0c-0.02,0.01-0.04,0.02-0.06,0.03c-0.9,0.44-1.76,0.95-2.56,1.54
		c-2.18,1.58-3.92,3.68-5.21,6.04l-5.77,10.54"/>
</g>
</svg>
